<svg version="1.1" xmlns="http://www.w3.org/2000/svg" xmlns:xlink="http://www.w3.org/1999/xlink" width="490.5" height="362" viewBox="0,0,490.5,362"><defs><radialGradient cx="357.5" cy="259.70052" r="240" gradientUnits="userSpaceOnUse" id="color-1"><stop offset="0" stop-color="#00ff7d"/><stop offset="1" stop-color="#fbff00"/></radialGradient><radialGradient cx="169.5" cy="198.70052" r="82.5" gradientUnits="userSpaceOnUse" id="color-2"><stop offset="0" stop-color="#0200ff"/><stop offset="1" stop-color="#00ff7d"/></radialGradient></defs><g transform="translate(5.75,1)"><g data-paper-data="{&quot;isPaintingLayer&quot;:true}" fill-rule="nonzero" stroke-linejoin="miter" stroke-miterlimit="10" stroke-dasharray="" stroke-dashoffset="0" style="mix-blend-mode: normal"><path d="M0,361v-362h480v362z" fill="url(#color-1)" stroke="none" stroke-width="0" stroke-linecap="butt"/><path d="M240,261c-45.56349,0 -82.5,-36.26494 -82.5,-81c0,-44.73506 36.93651,-81 82.5,-81c45.56349,0 82.5,36.26494 82.5,81c0,44.73506 -36.93651,81 -82.5,81z" fill="url(#color-2)" stroke="#000000" stroke-width="2" stroke-linecap="butt"/><path d="M304.48485,180c0,36.40291 -28.87085,65.91329 -64.48485,65.91329c-35.614,0 -64.48485,-29.51039 -64.48485,-65.91329c0,-36.40291 28.87085,-65.91329 64.48485,-65.91329c35.614,0 64.48485,29.51039 64.48485,65.91329z" fill="#fffe66" stroke="#000000" stroke-width="2" stroke-linecap="butt"/><text transform="translate(93.19697,188.88439) scale(0.48485,0.52312)" font-size="40" xml:space="preserve" fill="#000000" fill-rule="nonzero" stroke="none" stroke-width="1" stroke-linecap="butt" stroke-linejoin="miter" stroke-miterlimit="10" stroke-dasharray="" stroke-dashoffset="0" font-family="Sans Serif" font-weight="normal" text-anchor="start" style="mix-blend-mode: normal"><tspan x="0" dy="0">BALL</tspan></text><text transform="translate(331.36539,187) scale(0.5,0.5)" font-size="40" xml:space="preserve" fill="#000000" fill-rule="nonzero" stroke="none" stroke-width="1" stroke-linecap="butt" stroke-linejoin="miter" stroke-miterlimit="10" stroke-dasharray="" stroke-dashoffset="0" font-family="Sans Serif" font-weight="normal" text-anchor="start" style="mix-blend-mode: normal"><tspan x="0" dy="0">CLICKER</tspan></text><text transform="translate(180.32531,298.79424) scale(0.57618,0.78386)" font-size="40" xml:space="preserve" fill="#000000" fill-rule="nonzero" stroke="none" stroke-width="1" stroke-linecap="butt" stroke-linejoin="miter" stroke-miterlimit="10" stroke-dasharray="" stroke-dashoffset="0" font-family="Sans Serif" font-weight="normal" text-anchor="start" style="mix-blend-mode: normal"><tspan x="0" dy="0">Version 3.2</tspan></text><text transform="translate(193.5,182.70052) scale(0.5,0.5)" font-size="40" xml:space="preserve" fill="#000000" fill-rule="nonzero" stroke="none" stroke-width="1" stroke-linecap="butt" stroke-linejoin="miter" stroke-miterlimit="10" stroke-dasharray="" stroke-dashoffset="0" font-family="Sans Serif" font-weight="normal" text-anchor="start" style="mix-blend-mode: normal"><tspan x="0" dy="0">PLAY NOW</tspan></text><path d="M-5.5,187l135,-139l224,-2l131,131" fill="none" stroke="#000000" stroke-width="0.5" stroke-linecap="round"/></g></g></svg>