<svg version="1.1" xmlns="http://www.w3.org/2000/svg" xmlns:xlink="http://www.w3.org/1999/xlink" width="140.84329" height="66.00918" viewBox="0,0,140.84329,66.00918"><g transform="translate(-165.05389,-128.82415)"><g data-paper-data="{&quot;isPaintingLayer&quot;:true}" fill-rule="nonzero" stroke-linejoin="miter" stroke-miterlimit="10" stroke-dasharray="" stroke-dashoffset="0" style="mix-blend-mode: normal"><path d="M165.33409,139.45724c-0.91888,-2.37171 1.83775,-3.16228 1.83775,-3.16228l2.08117,-0.46163c5.83685,0.00424 13.31146,0.51032 19.04643,-0.59032c2.91437,-0.55932 5.85396,-2.1744 8.73021,-2.95526c5.63673,-1.53029 11.80968,-2.58619 17.67945,-3.11099c8.80737,-0.78744 18.14563,-0.0101 26.9938,-0.0101c12.46155,0 24.67847,-0.05649 37.04576,1.00852c5.3692,0.46237 12.15396,1.191 16.67429,4.19837c7.37044,4.90354 8.14969,14.74174 9.2177,22.00003c0.84303,6.57469 2.17794,13.31296 0.31549,19.91712c-1.69105,5.99639 -8.32102,9.64643 -14.4189,11.99383c-13.32978,5.13136 -27.02056,6.21547 -41.47312,6.21547c-26.86107,0 -53.73909,0.32841 -80.58411,0.33333c-0.00062,0 -0.00124,0 -0.00186,0c-1.00915,0 -1.66783,-0.30154 -2.09775,-0.69517c-0.45751,-0.36989 -0.80799,-0.93659 -0.80799,-1.80483v-1.66667c0,-8.54589 -1.18106,-17.83164 0.02177,-26.30546c0.40292,-2.83851 1.33508,-5.62036 1.53357,-8.51655c0.33416,-4.87557 0.07814,-9.86518 0.00988,-14.77632c-0.69821,-0.17098 -1.41509,-0.60847 -1.80354,-1.6111z" fill="#000000" stroke="none" stroke-width="0.5" stroke-linecap="butt"/><path d="M298.66667,159.16667c0,13.16279 -10.14821,23.83333 -22.66667,23.83333c-12.51845,0 -22.66667,-10.67055 -22.66667,-23.83333c0,-13.16279 10.14821,-23.83333 22.66667,-23.83333c12.51845,0 22.66667,10.67055 22.66667,23.83333z" fill="#ffffff" stroke="none" stroke-width="0" stroke-linecap="butt"/><path d="M261.16537,166.32588v-14.24664h5.91545l10.33908,-7.68979l0.05957,29.76187l-10.39865,-7.82547z" fill="#00ffff" stroke="none" stroke-width="0" stroke-linecap="butt"/><path d="M281.49968,152.27847c0,0 2.08778,1.59621 2.08778,7.03584c0,5.80946 -2.08778,7.254 -2.08778,7.254" data-paper-data="{&quot;origPos&quot;:null}" fill="#00ffff" stroke="#ffffff" stroke-width="0.75" stroke-linecap="round"/></g></g></svg>