<svg version="1.1" xmlns="http://www.w3.org/2000/svg" xmlns:xlink="http://www.w3.org/1999/xlink" width="140.84329" height="66.00918" viewBox="0,0,140.84329,66.00918"><g transform="translate(-165.05388,-128.82415)"><g data-paper-data="{&quot;isPaintingLayer&quot;:true}" fill-rule="nonzero" stroke="none" stroke-linecap="butt" stroke-linejoin="miter" stroke-miterlimit="10" stroke-dasharray="" stroke-dashoffset="0" style="mix-blend-mode: normal"><path d="M165.33409,139.45724c-0.91888,-2.37171 1.83775,-3.16228 1.83775,-3.16228l2.08117,-0.46163c5.83685,0.00424 13.31146,0.51032 19.04643,-0.59032c2.91437,-0.55932 5.85396,-2.1744 8.73021,-2.95526c5.63673,-1.53029 11.80968,-2.58619 17.67945,-3.11099c8.80737,-0.78744 18.14563,-0.0101 26.9938,-0.0101c12.46155,0 24.67847,-0.05649 37.04576,1.00852c5.3692,0.46237 12.15396,1.191 16.67429,4.19837c7.37044,4.90354 8.14969,14.74174 9.2177,22.00003c0.84303,6.57469 2.17794,13.31296 0.31549,19.91712c-1.69105,5.99639 -8.32102,9.64643 -14.4189,11.99383c-13.32978,5.13136 -27.02056,6.21547 -41.47312,6.21547c-26.86107,0 -53.73909,0.32841 -80.58411,0.33333c-0.00062,0 -0.00124,0 -0.00186,0c-1.00915,0 -1.66783,-0.30154 -2.09775,-0.69517c-0.45751,-0.36989 -0.80799,-0.93659 -0.80799,-1.80483v-1.66667c0,-8.54589 -1.18106,-17.83164 0.02177,-26.30546c0.40292,-2.83851 1.33508,-5.62036 1.53357,-8.51655c0.33416,-4.87557 0.07814,-9.86518 0.00988,-14.77632c-0.69821,-0.17098 -1.41509,-0.60847 -1.80354,-1.6111z" fill="#000000" stroke-width="0.5"/><path d="M298.66667,159.16667c0,13.16279 -10.14821,23.83333 -22.66667,23.83333c-12.51845,0 -22.66667,-10.67055 -22.66667,-23.83333c0,-13.16279 10.14821,-23.83333 22.66667,-23.83333c12.51845,0 22.66667,10.67055 22.66667,23.83333z" fill="#ffffff" stroke-width="0"/><path d="M261.16537,166.32588v-14.24664h5.91545l10.33908,-7.68979l0.05957,29.76187l-10.39865,-7.82547z" fill="#00ffff" stroke-width="0"/><path d="M281.02994,164.9652c-1.17078,-1.17078 -0.27027,-2.34156 -0.04679,-2.59623c0.70538,-1.31642 1.24779,-2.64291 1.82188,-3.94731c-0.80466,-0.94081 -1.60703,-1.88535 -2.44179,-2.81186c0,0 -1.25215,-1.39128 0.13913,-2.64343c1.39128,-1.25215 2.64343,0.13913 2.64343,0.13913c0.51524,0.57307 1.01772,1.15317 1.51609,1.73489c0.26867,-0.41249 0.56123,-0.81915 0.88493,-1.21879c0,0 1.18528,-1.44867 2.63395,-0.2634c1.44867,1.18528 0.2634,2.63395 0.2634,2.63395c-0.47824,0.57741 -0.88155,1.17926 -1.23745,1.79813c0.60089,0.67428 1.21649,1.33798 1.86103,1.98221l0.77319,0.63432c0,0 1.43794,1.19828 0.23966,2.63622c-1.19828,1.43794 -2.63622,0.23966 -2.63622,0.23966l-1.02372,-0.8631c-0.31396,-0.3141 -0.62129,-0.63264 -0.92355,-0.95464c-0.40892,0.97615 -0.82903,1.95868 -1.35066,2.92327l-0.46942,0.57698c0,0 -1.32355,1.32355 -2.64709,0z" fill="#00ffff" stroke-width="0.5"/></g></g></svg>